<svg aria-hidden="true" style="position: absolute; width: 0; height: 0; overflow: hidden;" version="1.1" xmlns="http://www.w3.org/2000/svg" xmlns:xlink="http://www.w3.org/1999/xlink">
<defs>
<symbol id="icon-icon" viewBox="0 0 34 32">
<path fill="#4f4f4f" style="fill: var(--color1, #4f4f4f)" d="M28.895 4.069c-3.425-2.919-8.519-2.394-11.663 0.85l-1.231 1.269-1.231-1.269c-3.138-3.244-8.238-3.769-11.662-0.85-3.925 3.35-4.131 9.363-0.619 12.994l12.094 12.488c0.781 0.806 2.050 0.806 2.831 0l12.094-12.488c3.519-3.631 3.312-9.644-0.612-12.994z"></path>
</symbol>
<symbol id="icon-icon-1" viewBox="0 0 32 32">
<path fill="#4f4f4f" style="fill: var(--color1, #4f4f4f)" d="M13.5 0h5c0.831 0 1.5 0.669 1.5 1.5v10.5h5.481c1.112 0 1.669 1.344 0.881 2.131l-9.506 9.512c-0.469 0.469-1.238 0.469-1.706 0l-9.519-9.512c-0.787-0.787-0.231-2.131 0.881-2.131h5.487v-10.5c0-0.831 0.669-1.5 1.5-1.5zM32 23.5v7c0 0.831-0.669 1.5-1.5 1.5h-29c-0.831 0-1.5-0.669-1.5-1.5v-7c0-0.831 0.669-1.5 1.5-1.5h9.169l3.063 3.063c1.256 1.256 3.281 1.256 4.538 0l3.062-3.063h9.169c0.831 0 1.5 0.669 1.5 1.5zM24.25 29c0-0.688-0.562-1.25-1.25-1.25s-1.25 0.562-1.25 1.25c0 0.688 0.562 1.25 1.25 1.25s1.25-0.562 1.25-1.25zM28.25 29c0-0.688-0.562-1.25-1.25-1.25s-1.25 0.562-1.25 1.25c0 0.688 0.562 1.25 1.25 1.25s1.25-0.562 1.25-1.25z"></path>
</symbol>
</defs>
</svg>
